<svg height="512" viewBox="0 0 512 512" width="512" xmlns="http://www.w3.org/2000/svg"><g id="Flat"><path d="m152 464h16v32h-16z"/><path d="m344 472h16v24h-16z"/><path d="m416 349.76v146.24h-320v-146.24a38.631 38.631 0 0 1 .34-5.18 40 40 0 0 1 28.17-33.13l51.49-15.45 24-8 32 64 12.39 41.29 9.21 30.71 2.4 8 2.4-8 9.21-30.71 12.39-41.29 32-64 24 8 51.49 15.45a39.97 39.97 0 0 1 27.89 31.34 39.194 39.194 0 0 1 .62 6.97z" fill="#dfdfdd"/><path d="m304 200v64l-48 48-48-48v-64z" fill="#fdc8a2"/><path d="m304 208v36.29q-2.25 2.22-4.69 4.23a68.314 68.314 0 0 1 -91.31-4.23v-36.29z" fill="#fdb683"/><path d="m256 248a68.309 68.309 0 0 1 -66.983-54.912 258.435 258.435 0 0 1 -5.017-50.672v-32.825a72 72 0 0 1 72-72 72 72 0 0 1 72 72v32.825a258.435 258.435 0 0 1 -5.017 50.671 68.309 68.309 0 0 1 -66.983 54.913z" fill="#fdc8a2"/><circle cx="220" cy="132" fill="#91563a" r="12"/><circle cx="292" cy="132" fill="#91563a" r="12"/><g fill="#fdb683"><path d="m254.891 192h-14.891v-16h14.891a64.985 64.985 0 0 0 22.329-3.761l5.56 15a81.13 81.13 0 0 1 -27.889 4.761z"/><path d="m184 120h-8a24 24 0 0 0 0 48h9.273q-1.268-12.746-1.273-25.584z"/><path d="m336 120h-8v22.416q0 12.824-1.273 25.584h9.273a24 24 0 0 0 0-48z"/></g><path d="m312 48-8-8c-10.113-12.644-25.426-16-41.617-16h-12.766c-16.191 0-31.5 3.356-41.617 16l-8 8c-32 24-16 72-16 72a174.461 174.461 0 0 0 32-56c24.624 9.393 55.376 9.393 80 0a174.461 174.461 0 0 0 32 56s16-56-16-72z" fill="#91563a"/><path d="m312 288-32 64-12.39 41.29-9.21 30.71-2.4 8-2.4-8-9.21-30.71-12.39-41.29-32-64 8-24 48 48 48-48z" fill="#3ba5d3"/><path d="m248 432h16v64.333h-16z" fill="#cececc"/><circle cx="176" cy="432" fill="#4db6e4" r="24"/><g fill="#348ed8"><path d="m176 440a8 8 0 0 1 -8-8v-144a32 32 0 0 1 32-32h8v16h-8a16 16 0 0 0 -16 16v144a8 8 0 0 1 -8 8z"/><path d="m376 456h-16v-16h8v-40a32 32 0 0 0 -64 0v40h8v16h-16a8 8 0 0 1 -8-8v-48a48 48 0 0 1 96 0v48a8 8 0 0 1 -8 8z"/><path d="m344 360h-16v-72a16.019 16.019 0 0 0 -16-16h-8v-16h8a32.036 32.036 0 0 1 32 32z"/></g><path d="m216 448h16v16h-16z" fill="#cececc"/><path d="m208 264 48 48-24 40-32-64z" fill="#4db6e4"/><path d="m304 264-48 48 24 40 32-64z" fill="#4db6e4"/><path d="m280 352-24-40-24 40 16 16-3.61 25.29 9.21 30.71 2.4 8 2.4-8 9.21-30.71-3.61-25.29z" fill="#348ed8"/><path d="m138.81 360.51-5.62 14.98-37.19-13.95v-11.78a38.631 38.631 0 0 1 .34-5.18z" fill="#cececc"/><path d="m416 349.76v11.86l-19.56 13.04-8.88-13.32 27.82-18.55a39.194 39.194 0 0 1 .62 6.97z" fill="#cececc"/></g></svg>